<svg xmlns="http://www.w3.org/2000/svg" width="33.668" height="19.874" viewBox="0 0 33.668 19.874">
  <path id="Icon_simple-mixcloud" data-name="Icon simple-mixcloud" d="M30.792,27.219a1.127,1.127,0,0,1-.94-1.747,9.417,9.417,0,0,0,0-10.437,1.12,1.12,0,0,1,1.857-1.251,11.7,11.7,0,0,1,0,12.961,1.024,1.024,0,0,1-.9.5l-.013-.029ZM27.58,25.4a1.116,1.116,0,0,1-.926-1.73A6,6,0,0,0,27.7,20.265a6.152,6.152,0,0,0-1.048-3.41,1.092,1.092,0,0,1,.3-1.536,1.114,1.114,0,0,1,1.552.316,8.307,8.307,0,0,1,1.432,4.649,8.156,8.156,0,0,1-1.432,4.65,1.076,1.076,0,0,1-.927.505ZM22.347,15.369A8.886,8.886,0,0,0,5.1,13.382a5.962,5.962,0,0,0,.877,11.861h15.3a4.993,4.993,0,0,0,1.068-9.872v0Zm-1.069,7.64H5.98a3.729,3.729,0,1,1,2.646-6.362,1.108,1.108,0,0,0,1.578,0,1.144,1.144,0,0,0,0-1.578A6.015,6.015,0,0,0,7.448,13.51a6.643,6.643,0,0,1,12.689,2.755A6.351,6.351,0,0,1,19.8,18.35a1.148,1.148,0,0,0,.715,1.431.947.947,0,0,0,.337.063,1.107,1.107,0,0,0,1.052-.758,7.368,7.368,0,0,0,.316-1.347,2.765,2.765,0,0,1-.989,5.343l.048-.074Z" transform="translate(0 -7.374)" fill="#525e66"/>
</svg>
