<svg xmlns="http://www.w3.org/2000/svg" width="23.873" height="23.873" viewBox="0 0 23.873 23.873">
  <path id="Icon_awesome-unlink" data-name="Icon awesome-unlink" d="M14.178,18.926a.56.56,0,0,1,0,.791L12.1,21.8A7.087,7.087,0,0,1,2.072,11.777L4.155,9.694a.56.56,0,0,1,.791,0l1.846,1.846a.56.56,0,0,1,0,.791L4.71,14.415a3.357,3.357,0,0,0,4.748,4.748l2.083-2.083a.56.56,0,0,1,.791,0ZM11.541,6.793a.56.56,0,0,0,.791,0L14.415,4.71a3.357,3.357,0,0,1,4.748,4.748L17.08,11.541a.56.56,0,0,0,0,.791l1.846,1.846a.56.56,0,0,0,.791,0L21.8,12.1A7.087,7.087,0,0,0,11.778,2.072L9.695,4.155a.56.56,0,0,0,0,.791l1.846,1.846ZM22.49,23.545l1.055-1.055a1.119,1.119,0,0,0,0-1.583L2.965.328a1.119,1.119,0,0,0-1.583,0L.328,1.383a1.119,1.119,0,0,0,0,1.583l20.58,20.58a1.119,1.119,0,0,0,1.583,0Z" transform="translate(0 0)" fill="#525e66"/>
</svg>
